<?xml version="1.0" standalone="no"?><!DOCTYPE svg PUBLIC "-//W3C//DTD SVG 1.1//EN" "http://www.w3.org/Graphics/SVG/1.1/DTD/svg11.dtd"><svg t="1672634820247" class="icon" viewBox="0 0 1024 1024" version="1.1" xmlns="http://www.w3.org/2000/svg" p-id="20750" xmlns:xlink="http://www.w3.org/1999/xlink" width="128" height="128"><path d="M213.333333 384v512H42.666667V384h170.666666m170.666667 512a85.333333 85.333333 0 0 1-85.333333-85.333333V384c0-23.466667 9.386667-44.8 25.173333-60.16L604.586667 42.666667l45.226666 45.226666c11.52 11.52 18.773333 27.306667 18.773334 44.8l-1.28 13.653334L626.773333 341.333333H896a85.333333 85.333333 0 0 1 85.333333 85.333334v85.333333c0 11.093333-2.133333 21.333333-5.973333 31.146667l-128.853333 300.8C833.706667 874.666667 803.413333 896 768 896H384m0-85.333333h385.28L896 512v-85.333333h-375.04l48.213333-226.986667L384 385.28V810.666667z" fill="#ff5d47" p-id="20751"></path></svg>