<?xml version="1.0" standalone="no"?><!DOCTYPE svg PUBLIC "-//W3C//DTD SVG 1.1//EN" "http://www.w3.org/Graphics/SVG/1.1/DTD/svg11.dtd"><svg t="1672637231037" class="icon" viewBox="0 0 1024 1024" version="1.1" xmlns="http://www.w3.org/2000/svg" p-id="21308" xmlns:xlink="http://www.w3.org/1999/xlink" width="128" height="128"><path d="M512 554.666667c-113.92 0-341.333333 56.746667-341.333333 170.666666v128h682.666666v-128c0-113.92-227.413333-170.666667-341.333333-170.666666m0-384a170.666667 170.666667 0 0 0-170.666667 170.666666 170.666667 170.666667 0 0 0 170.666667 170.666667 170.666667 170.666667 0 0 0 170.666667-170.666667 170.666667 170.666667 0 0 0-170.666667-170.666666m0 465.066666c126.72 0 260.266667 62.293333 260.266667 89.6v46.933334H251.733333V725.333333c0-27.306667 132.266667-89.6 260.266667-89.6m0-384A89.6 89.6 0 0 1 601.6 341.333333a89.6 89.6 0 0 1-89.6 89.6A89.6 89.6 0 0 1 422.4 341.333333 89.6 89.6 0 0 1 512 251.733333z" fill="#23c9ed" p-id="21309"></path></svg>