<svg width="32" height="32" viewBox="0 0 32 32" fill="none" xmlns="http://www.w3.org/2000/svg">
<path d="M14.5372 5.056C13.8194 5.62287 13.152 6.15316 13.056 6.23544L12.8732 6.38169L13.216 6.65144C13.4034 6.80228 13.5863 6.94856 13.6229 6.98056C13.6594 7.01256 14.1852 7.42856 14.784 7.90856L15.8766 8.77715L16.0412 8.65372C16.1326 8.58516 16.768 8.07772 17.4583 7.52916C18.144 6.98056 18.7474 6.50516 18.7932 6.47772C18.8434 6.44572 18.88 6.40916 18.88 6.39084C18.88 6.37716 18.5783 6.12116 18.208 5.83315C17.8332 5.54056 17.4994 5.27544 17.4628 5.24344C16.9646 4.83656 15.9086 4.02284 15.8766 4.02284C15.8583 4.02744 15.2548 4.48916 14.5372 5.056ZM21.8286 10.6926C15.8583 15.4148 15.904 15.3783 15.7943 15.3097C15.6983 15.2503 15.4332 15.0446 13.792 13.7463C13.5086 13.5223 13.2114 13.2846 13.1246 13.2206C13.0377 13.152 12.8503 13.0057 12.7086 12.8914C12.5623 12.7772 12.3748 12.6308 12.2926 12.5623C11.8812 12.2423 10.0708 10.8114 9.10172 10.048C8.91884 9.90172 8.74516 9.78284 8.72228 9.78284C8.69944 9.78284 8.37944 10.0252 8.01372 10.3177C7.648 10.6148 7.30516 10.8892 7.25484 10.9257C7.2 10.9623 7.09484 11.0492 7.02172 11.1177C6.94859 11.1908 6.87084 11.2457 6.85256 11.2457C6.75656 11.2457 6.82972 11.3417 7.05372 11.52C7.18172 11.6206 7.328 11.7348 7.36916 11.7714C7.41028 11.8034 7.68916 12.0228 7.98628 12.256C8.28341 12.4892 8.71316 12.8274 8.93716 13.0057C9.54059 13.4812 9.93372 13.7966 12.9326 16.1646C14.4274 17.344 15.7074 18.3452 15.7714 18.3863C15.8857 18.464 15.8949 18.464 16.0046 18.3772C16.1735 18.2462 16.3411 18.1137 16.5074 17.9794C16.7223 17.8103 16.9692 17.6137 17.056 17.5452C17.9977 16.8046 19.5566 15.5748 19.6114 15.5292C19.648 15.4972 20 15.2228 20.3886 14.9166C20.7771 14.6103 21.5726 13.9886 22.1486 13.5314C22.7292 13.0743 23.5932 12.3932 24.0777 12.0137C24.5623 11.6343 24.9463 11.3097 24.9372 11.2868C24.9097 11.2503 23.136 9.81484 23.0628 9.77828C23.04 9.76456 22.4823 10.176 21.8286 10.6926Z" fill="#006CFF"/>
<path d="M1.81031 15.2914C1.33484 15.6754 0.918844 16.0228 0.882282 16.0594C0.809157 16.128 0.713157 16.0457 3.38284 18.1486C4.42056 18.9668 4.40228 18.9532 5.184 19.5703C5.50856 19.8263 6.31772 20.4663 6.98972 20.992C8.18284 21.9337 8.39316 22.0983 8.63544 22.2903C8.69944 22.3452 9.35316 22.8572 10.0846 23.4332C10.8114 24.0092 12.4023 25.2617 13.6137 26.2172C14.8297 27.1726 15.8354 27.9588 15.8583 27.968C15.8812 27.9772 16.0914 27.8308 16.3246 27.6434C17.0057 27.1131 19.1452 25.4263 19.4972 25.1474C19.6754 25.0057 19.8994 24.8274 19.9954 24.7543C20.0914 24.6766 20.1966 24.5943 20.224 24.5714C20.2514 24.544 20.5943 24.2743 20.9828 23.968C21.632 23.4652 22.8297 22.5234 22.9943 22.3863C23.0308 22.3543 23.1543 22.2583 23.2686 22.1714C23.3828 22.0846 23.5154 21.9749 23.5657 21.9337C23.616 21.8926 24.0274 21.568 24.48 21.2114C25.3897 20.4983 25.8012 20.1737 27.2457 19.0354C27.7852 18.6103 28.2606 18.24 28.2972 18.208C28.3748 18.144 29.28 17.4308 29.6914 17.1063C29.8423 16.992 29.9749 16.8823 29.9886 16.8686C30.0023 16.8503 30.176 16.7177 30.3772 16.5623C30.5783 16.4114 30.7886 16.2423 30.848 16.192L30.9532 16.1006L30.6423 15.8583C30.4732 15.7212 30.3223 15.6023 30.3086 15.5886C30.272 15.5474 29.6092 15.0126 29.3668 14.8297C29.2434 14.7337 29.1383 14.6423 29.1292 14.6194C29.088 14.5234 28.9188 14.624 28.2148 15.1817C27.7943 15.5108 27.4103 15.8126 27.36 15.8537C27.3097 15.8994 27.0308 16.1143 26.7428 16.3428C26.4548 16.5668 26.208 16.7634 26.1943 16.7772C26.1806 16.7908 25.9886 16.9463 25.76 17.12C25.536 17.2937 25.2846 17.4857 25.2069 17.5497C25.0514 17.6777 25.0377 17.6869 24.5714 18.0572C24.3977 18.1943 24.2194 18.3314 24.1828 18.3634C24.1463 18.3954 23.5474 18.8663 22.8572 19.4057C22.1668 19.9497 21.5588 20.4297 21.5086 20.4708C21.4583 20.5166 21.056 20.832 20.6172 21.1748C20.1783 21.5177 19.3417 22.176 18.7566 22.6377C18.176 23.0994 17.4354 23.68 17.1154 23.9314C16.7954 24.1829 16.3886 24.5028 16.2103 24.6446L15.8857 24.9052L15.7486 24.8092C15.6754 24.7543 15.6023 24.6994 15.5886 24.6857C15.5748 24.672 15.4332 24.5577 15.2686 24.4343C14.8983 24.1463 14.816 24.0823 14.7474 24.0228C14.72 23.9954 14.6148 23.9132 14.5143 23.84C14.4137 23.7623 14.3223 23.6937 14.3086 23.68C14.2948 23.6663 14.0937 23.5017 13.856 23.3143C13.6183 23.1314 13.3897 22.9532 13.3532 22.9212C13.312 22.8846 12.8183 22.496 12.2514 22.0526C11.6892 21.6091 11.1543 21.1886 11.0628 21.12C10.8846 20.9737 10.016 20.288 7.15428 18.0343C6.07544 17.184 4.88228 16.2423 4.50284 15.9452C2.94856 14.7108 2.77941 14.5828 2.72456 14.5874C2.69716 14.5874 2.28572 14.9074 1.81028 15.2914H1.81031Z" fill="#006CFF"/>
</svg>